<svg width="313" height="23" viewBox="0 0 313 23" fill="none" xmlns="http://www.w3.org/2000/svg">
<path d="M0.596236 22V0.90909H5.69389V17.8601H14.468V22H0.596236ZM21.9523 22H16.4736L23.5898 0.90909H30.3763L37.4925 22H32.0138L27.0603 6.22301H26.8955L21.9523 22ZM21.2211 13.6996H32.6729V17.5717H21.2211V13.6996ZM59.8346 7.79865C59.7179 7.36612 59.5463 6.98509 59.3197 6.65554C59.0931 6.31913 58.8151 6.03421 58.4855 5.80078C58.156 5.56735 57.7784 5.39228 57.3527 5.27557C56.9271 5.15199 56.4602 5.0902 55.9521 5.0902C54.9292 5.0902 54.0435 5.33736 53.2952 5.83168C52.5537 6.32599 51.9804 7.04687 51.5754 7.99432C51.1703 8.9349 50.9678 10.078 50.9678 11.4237C50.9678 12.7762 51.1634 13.9296 51.5548 14.8839C51.9461 15.8382 52.5125 16.5659 53.254 17.0671C53.9955 17.5683 54.8949 17.8189 55.9521 17.8189C56.8859 17.8189 57.6754 17.6679 58.3208 17.3658C58.973 17.0568 59.4673 16.6209 59.8037 16.0579C60.1401 15.4949 60.3083 14.8324 60.3083 14.0703L61.2558 14.1836H56.1272V10.4659H65.2206V13.2567C65.2206 15.1448 64.819 16.7616 64.0157 18.1072C63.2193 19.4529 62.1208 20.4862 60.7203 21.207C59.3266 21.9279 57.7235 22.2884 55.911 22.2884C53.8994 22.2884 52.1315 21.8524 50.6073 20.9805C49.0832 20.1085 47.8954 18.8659 47.0441 17.2525C46.1928 15.6322 45.7671 13.7099 45.7671 11.4854C45.7671 9.75533 46.0246 8.22088 46.5395 6.8821C47.0544 5.53646 47.7719 4.39678 48.6919 3.46307C49.6187 2.52936 50.6897 1.82221 51.9049 1.34162C53.127 0.861031 54.4417 0.620738 55.8492 0.620738C57.0712 0.620738 58.2075 0.795809 59.2579 1.14595C60.3152 1.49609 61.2489 1.99041 62.059 2.62891C62.876 3.2674 63.5386 4.02604 64.0466 4.90483C64.5547 5.78362 64.8705 6.74822 64.9941 7.79865H59.8346ZM80.9847 0.90909H86.0721V14.5131C86.0721 16.0853 85.6979 17.455 84.9496 18.6222C84.2012 19.7824 83.1577 20.6818 81.8189 21.3203C80.4801 21.9519 78.9251 22.2678 77.1538 22.2678C75.3619 22.2678 73.7965 21.9519 72.4577 21.3203C71.119 20.6818 70.0788 19.7824 69.3374 18.6222C68.5959 17.455 68.2251 16.0853 68.2251 14.5131V0.90909H73.3228V14.0703C73.3228 14.7981 73.4807 15.4469 73.7965 16.0167C74.1192 16.5865 74.5689 17.0328 75.1456 17.3555C75.7223 17.6781 76.3917 17.8395 77.1538 17.8395C77.9158 17.8395 78.5818 17.6781 79.1516 17.3555C79.7283 17.0328 80.178 16.5865 80.5007 16.0167C80.8234 15.4469 80.9847 14.7981 80.9847 14.0703V0.90909ZM94.3648 0.90909V22H89.2671V0.90909H94.3648ZM102.127 22H96.6484L103.765 0.90909H110.551L117.667 22H112.189L107.235 6.22301H107.07L102.127 22ZM101.396 13.6996H112.848V17.5717H101.396V13.6996ZM133.964 22H126.169V0.90909H133.954C136.103 0.90909 137.953 1.33132 139.505 2.17578C141.063 3.01338 142.265 4.22171 143.109 5.80078C143.954 7.37299 144.376 9.25414 144.376 11.4442C144.376 13.6412 143.954 15.5292 143.109 17.1083C142.272 18.6874 141.074 19.8991 139.515 20.7436C137.957 21.5812 136.106 22 133.964 22ZM131.266 17.6541H133.769C134.95 17.6541 135.948 17.455 136.765 17.0568C137.589 16.6518 138.211 15.9961 138.629 15.0898C139.055 14.1767 139.268 12.9615 139.268 11.4442C139.268 9.92696 139.055 8.71863 138.629 7.81925C138.204 6.913 137.576 6.26077 136.745 5.86257C135.921 5.4575 134.905 5.25497 133.697 5.25497H131.266V17.6541ZM147.352 22V0.90909H162.058V5.04901H152.45V9.37429H161.306V13.5245H152.45V17.8601H162.058V22H147.352ZM165.251 22V0.90909H170.348V17.8601H179.122V22H165.251ZM187.302 5.04901V0.90909H205.128V5.04901H198.733V22H193.707V5.04901H187.302ZM220.377 0.90909H225.465V14.5131C225.465 16.0853 225.09 17.455 224.342 18.6222C223.594 19.7824 222.55 20.6818 221.211 21.3203C219.873 21.9519 218.318 22.2678 216.546 22.2678C214.754 22.2678 213.189 21.9519 211.85 21.3203C210.512 20.6818 209.471 19.7824 208.73 18.6222C207.988 17.455 207.618 16.0853 207.618 14.5131V0.90909H212.715V14.0703C212.715 14.7981 212.873 15.4469 213.189 16.0167C213.512 16.5865 213.961 17.0328 214.538 17.3555C215.115 17.6781 215.784 17.8395 216.546 17.8395C217.308 17.8395 217.974 17.6781 218.544 17.3555C219.121 17.0328 219.571 16.5865 219.893 16.0167C220.216 15.4469 220.377 14.7981 220.377 14.0703V0.90909ZM228.66 22V0.90909H237.372C238.951 0.90909 240.314 1.19401 241.46 1.76385C242.614 2.32682 243.503 3.13695 244.128 4.19425C244.753 5.24467 245.065 6.49077 245.065 7.93253C245.065 9.39489 244.746 10.6375 244.107 11.6605C243.469 12.6766 242.562 13.4524 241.388 13.9879C240.214 14.5166 238.824 14.7809 237.218 14.7809H231.708V10.7646H236.27C237.039 10.7646 237.681 10.665 238.196 10.4659C238.718 10.2599 239.112 9.95099 239.38 9.53906C239.648 9.12027 239.782 8.58475 239.782 7.93253C239.782 7.2803 239.648 6.74136 239.38 6.3157C239.112 5.88317 238.718 5.56049 238.196 5.34766C237.674 5.12796 237.032 5.01811 236.27 5.01811H233.757V22H228.66ZM240.534 12.3608L245.786 22H240.225L235.076 12.3608H240.534ZM252.959 0.90909V22H247.861V0.90909H252.959ZM267.559 7.23224C267.49 6.47703 267.185 5.89003 266.642 5.47124C266.107 5.04557 265.341 4.83274 264.346 4.83274C263.687 4.83274 263.138 4.91856 262.698 5.0902C262.259 5.26184 261.929 5.4987 261.71 5.80078C261.49 6.096 261.377 6.43584 261.37 6.82031C261.356 7.13613 261.418 7.41418 261.555 7.65447C261.699 7.89477 261.905 8.1076 262.173 8.29297C262.448 8.47147 262.777 8.62938 263.162 8.76669C263.546 8.904 263.979 9.02415 264.459 9.12713L266.272 9.53906C267.315 9.76562 268.235 10.0677 269.032 10.4453C269.835 10.8229 270.508 11.2726 271.05 11.7944C271.599 12.3162 272.015 12.9169 272.296 13.5966C272.578 14.2763 272.722 15.0384 272.729 15.8828C272.722 17.2147 272.385 18.3578 271.719 19.3121C271.054 20.2665 270.096 20.9976 268.846 21.5057C267.604 22.0137 266.103 22.2678 264.346 22.2678C262.581 22.2678 261.044 22.0034 259.732 21.4748C258.421 20.9461 257.401 20.1429 256.674 19.065C255.946 17.9871 255.572 16.6243 255.551 14.9766H260.433C260.474 15.6562 260.656 16.2227 260.978 16.6758C261.301 17.1289 261.744 17.4722 262.307 17.7056C262.877 17.939 263.536 18.0558 264.284 18.0558C264.971 18.0558 265.554 17.9631 266.035 17.7777C266.522 17.5923 266.896 17.3349 267.157 17.0053C267.418 16.6758 267.552 16.2982 267.559 15.8725C267.552 15.4743 267.429 15.1345 267.188 14.853C266.948 14.5646 266.577 14.3175 266.076 14.1115C265.582 13.8987 264.95 13.703 264.181 13.5245L261.977 13.0096C260.151 12.5908 258.713 11.9145 257.662 10.9808C256.612 10.0402 256.09 8.77012 256.097 7.17045C256.09 5.866 256.44 4.72289 257.147 3.74112C257.855 2.75935 258.833 1.99384 260.082 1.4446C261.332 0.895359 262.757 0.620738 264.356 0.620738C265.99 0.620738 267.408 0.898792 268.609 1.4549C269.818 2.00414 270.755 2.77652 271.421 3.77202C272.087 4.76752 272.427 5.92093 272.44 7.23224H267.559ZM274.613 5.04901V0.90909H292.44V5.04901H286.044V22H281.019V5.04901H274.613ZM296.858 22H291.379L298.495 0.90909H305.282L312.398 22H306.919L301.966 6.22301H301.801L296.858 22ZM296.126 13.6996H307.578V17.5717H296.126V13.6996Z" fill="#05AEE9"/>
</svg>
